<?xml version="1.0" encoding="UTF-8"?>
<svg width="18px" height="18px" viewBox="0 0 18 18" version="1.1" xmlns="http://www.w3.org/2000/svg" xmlns:xlink="http://www.w3.org/1999/xlink">
    <!-- Generator: sketchtool 64 (101010) - https://sketch.com -->
    <title>662AF71B-0C43-4CD1-B617-B1E6B501E2F8@1.00x</title>
    <desc>Created with sketchtool.</desc>
    <g id="Details_D" stroke="none" stroke-width="1" fill="none" fill-rule="evenodd">
        <g id="Captcha" transform="translate(-90.000000, -885.000000)" fill="#3DCD58">
            <g id="Thank-you" transform="translate(50.000000, 852.000000)">
                <g id="Group-7" transform="translate(40.000000, 30.000000)">
                    <path d="M9,3 C13.96875,3 18,7.03125 18,12 C18,16.96875 13.96875,21 9,21 C4.03125,21 0,16.96875 0,12 C0,7.03125 4.03125,3 9,3 Z M13.4296875,9.84375 C13.7109375,9.5625 13.7109375,9.1171875 13.4296875,8.8125 C13.1484375,8.53125 12.6796875,8.53125 12.375,8.8125 L7.5703125,13.6640625 L5.625,11.671875 C5.3203125,11.3671875 4.8515625,11.3671875 4.5703125,11.671875 C4.265625,11.953125 4.265625,12.4453125 4.5703125,12.7265625 L7.03125,15.2109375 C7.171875,15.3515625 7.359375,15.4453125 7.5703125,15.4453125 C7.7578125,15.4453125 7.9453125,15.3515625 8.109375,15.2109375 L13.4296875,9.84375 Z" id="se_notification_ok_s"></path>
                </g>
            </g>
        </g>
    </g>
</svg>